<?xml version="1.0" encoding="utf-8"?>
<!-- Generator: Adobe Illustrator 17.0.0, SVG Export Plug-In . SVG Version: 6.00 Build 0)  -->
<!DOCTYPE svg PUBLIC "-//W3C//DTD SVG 1.1//EN" "http://www.w3.org/Graphics/SVG/1.1/DTD/svg11.dtd">
<svg version="1.1" id="Layer_1" xmlns="http://www.w3.org/2000/svg" xmlns:xlink="http://www.w3.org/1999/xlink" x="0px" y="0px"
	 width="800px" height="600px" viewBox="0 0 800 600" enable-background="new 0 0 800 600" xml:space="preserve">
<g>
	<g>
		<path d="M237.592,206.234c2.454-6.334,4.565-12.828,7.424-18.974c10.609-22.81,28.678-37.704,51.773-46.402
			c13.552-5.104,27.554-9.132,41.556-12.892c15.224-4.088,27.691-12.392,39.154-22.791c19.398-17.597,38.773-35.226,58.539-52.404
			c8.305-7.218,17.625-13.393,28.7-15.681c9.972-2.06,16.05,1.431,16.406,12.821c0.446,14.284-4.618,27.546-9.262,40.753
			c-4.979,14.161-10.322,28.197-15.715,42.208c-2.438,6.333-1.163,11.813,3.86,15.807c5.762,4.581,12.203,8.303,18.294,12.478
			c7.687,5.27,15.729,10.127,22.86,16.071c7.563,6.304,10.817,15.703,14.618,24.514c3.691,8.556,6.817,17.376,10.88,25.746
			c5.003,10.307,14.466,16.197,23.936,21.731c19.242,11.244,39.84,19.449,60.933,26.467c8.54,2.842,17.034,5.887,25.717,8.21
			c4.192,1.122,8.774,1.043,13.179,1.039c4.133-0.003,7.43,1.388,9.874,4.57c3.727,4.852,7.459,9.718,10.858,14.8
			c4.372,6.538,2.224,13.354-0.936,19.301c-10.551,19.861-20.901,39.935-36.099,56.83c-7.882,8.762-17.205,15.904-27.522,21.61
			c-12.252,6.777-25.296,11.681-38.764,15.432c-8.709,2.426-17.399,5.041-26.253,6.778c-4.355,0.854-9.14,0.386-13.597-0.321
			c-11.413-1.811-22.74-4.948-34.373-3.771c-11.191,1.132-21.67,4.962-31.376,10.778c-17.467,10.467-30.638,25.317-42.255,41.666
			c-17.289,24.331-31.053,50.719-45,77.029c-3.71,6.999-9.735,12.796-14.915,18.961c-0.726,0.864-2.702,0.677-4.982,1.166
			c1.066-2.731,1.581-4.6,2.477-6.264c15.319-28.466,30.292-57.128,46.187-85.269c9.519-16.852,21.89-31.798,36.523-44.57
			c12.432-10.851,26.567-19.177,42.686-23.097c9.131-2.22,18.666-2.933,28.064-3.862c12.15-1.202,24.339-2.043,36.524-2.849
			c10.153-0.672,20.009-2.868,29.914-5.001c11.867-2.555,23.092-6.686,33.167-13.387c16.782-11.163,30.685-25.049,38.119-44.253
			c5.297-13.684,5.28-27.08-4.945-38.768c-6.113-6.988-14.399-11.042-23.009-13.977c-13.651-4.654-27.715-8.155-41.206-13.21
			c-18.005-6.746-36.184-13.361-51.417-25.804c-9.076-7.413-14.874-17.114-18.853-27.742c-7.437-19.868-20.779-34.745-37.536-47.027
			c-8.911-6.531-17.833-13.047-26.748-19.572c-2.806-2.053-3.107-6.791-1.939-12.177c3.395-15.655,11.616-29.332,17.517-43.953
			c4.281-10.606,7.215-21.41,6.558-32.987c-0.285-5.014-1.142-5.642-6.353-4.596c-11.012,2.211-20.567,7.357-28.478,15.118
			c-6.581,6.457-12.391,13.694-18.627,20.509c-16.407,17.93-36.01,31.38-58.405,40.619c-12.751,5.261-25.888,9.579-38.733,14.621
			c-11.47,4.503-23.043,8.875-34.099,14.272c-18.091,8.831-32.047,22.487-42.754,39.492c-0.185,0.294-0.545,0.478-0.823,0.713
			C238.474,206.575,238.033,206.404,237.592,206.234z"/>
		<path d="M329.379,568.758c2.863-13.964,5.802-27.913,8.561-41.898c1.705-8.644,2.759-17.431,4.773-25.997
			c3.289-13.987,6.79-27.943,10.828-41.728c3.58-12.224,9.161-23.647,15.94-34.481c9.645-15.415,23.571-25.471,39.638-33.386
			c11.566-5.698,22.774-12.227,33.688-19.106c6.491-4.091,11.972-9.685,14.573-17.364c2.642-7.798,1.166-14.966-3.852-21.261
			c-5.581-7-13.566-10.835-21.349-14.651c-8.608-4.22-15.71-10.214-21.689-17.443c-2.987-3.611-4.61-8.323-7.067-12.406
			c-5.664-9.414-10.507-19.4-18.815-26.994c-7.469-6.827-15.708-12.339-25.789-14.233c-8.109-1.524-16.307-3.092-24.515-3.421
			c-7.062-0.283-14.182,1.377-21.298,1.704c-2.204,0.101-5.124-0.711-6.607-2.206c-5.488-5.532-10.25-11.79-15.795-17.258
			c-4.389-4.328-9.406-8.061-14.39-11.723c-1.998-1.468-4.175-0.725-5.629,1.617c-4.058,6.536-4.826,13.756-5.242,21.254
			c-0.48,8.633-1.524,17.264-2.894,25.805c-0.591,3.685-3.897,5.739-7.473,5.914c6.556-17.491,2.348-35.592,3.589-53.364
			c0.467-6.684,1.313-13.44,8.131-16.558c7.251-3.316,14.597-1.563,20.499,3.292c8.024,6.6,15.459,13.926,23.032,21.063
			c7.603,7.165,16.491,11.236,26.867,12.663c11.659,1.604,23.416,3.082,34.799,5.937c10.919,2.738,20.132,9.345,26.746,18.479
			c6.822,9.42,12.455,19.692,18.934,29.374c7.418,11.085,16.789,20.025,29.12,25.73c6.194,2.866,12.291,6.139,17.92,9.977
			c6.561,4.474,7.232,11.065,5.934,18.694c-3.345,19.666-15.872,31.931-32.119,41.245c-11.895,6.819-24.058,13.18-36.196,19.566
			c-17.507,9.211-28.899,23.702-35.241,42.005c-5.076,14.651-9.497,29.582-13.229,44.632c-4.021,16.216-6.327,32.863-10.502,49.032
			c-2.374,9.193-6.958,17.822-10.664,26.656c-0.32,0.763-1.522,1.156-2.314,1.72C329.982,569.346,329.68,569.052,329.379,568.758z"
			/>
		<path d="M468.415,259.424c6.625-11.405,14.583-17.812,32.071-25.996c1.298,5.188,2.565,10.249,3.826,15.312
			c0.031,0.123-0.001,0.26,0.005,0.39c0.468,10.936,0.475,11.078-10.426,11.638c-6.102,0.314-12.237,0.183-18.35,0.01
			C473.291,260.714,471.062,259.95,468.415,259.424z"/>
		<path d="M210.283,349.891c-0.816-10.312-2.858-20.704-2.193-30.92c1.385-21.256,8.73-37.563,32.957-46.038
			c2.691-0.942,5.617-1.215,8.539-1.287c-4.072,2.499-8.406,4.657-12.168,7.558c-13.013,10.037-19.937,23.827-22.546,39.686
			c-1.553,9.437-1.807,19.087-2.66,28.64c-0.066,0.743-0.248,1.476-0.376,2.214C211.32,349.793,210.801,349.842,210.283,349.891z"/>
		<path d="M392.894,311.42c-4.501,7.042-10.49,11.232-18.782,11.734c-0.777,0.047-1.559,0.182-2.317,0.365
			c-5.227,1.264-6.193,0.495-6.292-5.056c-0.119-6.668,4.837-12.626,12.532-15.067C382.914,301.848,388.168,304.638,392.894,311.42z
			"/>
	</g>
</g>
</svg>
