<?xml version="1.0" encoding="utf-8"?>
<!-- Generator: Adobe Illustrator 17.0.0, SVG Export Plug-In . SVG Version: 6.00 Build 0)  -->
<!DOCTYPE svg PUBLIC "-//W3C//DTD SVG 1.1//EN" "http://www.w3.org/Graphics/SVG/1.1/DTD/svg11.dtd">
<svg version="1.1" id="Layer_1" xmlns="http://www.w3.org/2000/svg" xmlns:xlink="http://www.w3.org/1999/xlink" x="0px" y="0px"
	 width="300px" height="300px" viewBox="0 0 300 300" enable-background="new 0 0 300 300" xml:space="preserve">
<g>
	<g>
		<path d="M229.216,191.231c-1.68,1.219-2.058,2.837-2.766,4.231c-9.805,19.313-25.456,31.737-46.143,37.134
			c-27.126,7.077-53.067,2.623-77.506-10.702c-11.82-6.444-21.011-15.582-26.341-28.209c-0.272-0.644-0.686-1.229-1.319-2.344
			c-16.104,2.124-31.289,7.368-45.215,15.388c-2.081-1.643-1.631-3.038-0.431-3.974c1.373-1.071,3.018-1.831,4.617-2.57
			c11.788-5.45,24.095-9.28,36.847-11.704c0.828-0.157,1.789-0.041,2.353-1.366c-1.229-2.618-3.709-1.943-5.824-1.694
			c-7.03,0.827-14.053,1.768-20.871,3.772c-5.263,1.546-10.515,3.132-15.746,4.781c-1.753,0.553-3.411,1.281-4.484-1.046
			c0.489-2.406,2.695-2.701,4.416-3.272c9.93-3.298,19.991-6.059,30.514-6.714c3.5-0.218,6.991-0.592,10.656-0.909
			c0.326-3.259-1.597-3.995-3.793-4.171c-4.603-0.368-9.205-0.07-13.793,0.403c-6.877,0.709-13.658,1.97-20.419,3.397
			c-2.523,0.533-5.132,1.219-7.908,0.317c-0.008-3.308,2.594-3.431,4.361-3.827c5.349-1.201,10.752-2.272,16.257-2.471
			c6.195-0.224,12.395-0.3,18.592-0.486c1.741-0.052,3.549,0.37,5.801-0.865c-2.054-18.071,3.237-34.283,15.119-48.209
			c-2.376-18.973-4.497-37.709-5.955-57.506c14.409,12.235,25.927,26.047,40.085,37.038c6.167-1.508,12.122-3.183,18.303-3.796
			c13.334-1.322,26.629-1.467,39.353,3.298c5.622,2.106,9.271,0.496,13.125-3.441c7.804-7.973,15.889-15.674,23.943-23.398
			c2.406-2.307,5.096-4.319,8.107-6.845c0.725,4.561-0.681,8.291-0.976,12.075c-0.743,9.532-1.834,19.039-2.851,28.548
			c-0.263,2.459-0.607,4.93-1.192,7.328c-1.277,5.239-0.137,9.665,3.475,13.744c6.066,6.853,8.818,15.248,10.319,24.096
			c0.981,5.783,1.325,11.611,0.449,17.363c1.175,1.553,2.713,0.88,4.008,0.807c12.439-0.698,24.791-0.155,37.013,2.404
			c2.353,0.493,5.011,0.613,5.598,3.695c-1.264,2.277-3.056,1.573-4.744,1.143c-7.207-1.836-14.482-3.264-21.862-4.263
			c-5.854-0.793-11.664-0.477-17.499-0.146c-1.881,0.107-3.478,0.535-3.724,3.38c15.845,1.612,31.612,3.209,46.322,9.702
			c-1.57,3.776-1.931,4.109-4.829,2.869c-4.565-1.952-9.166-3.717-13.964-5.046c-7.883-2.184-16.012-2.917-24.016-4.374
			c-1.841-0.335-3.583-0.194-4.413,1.951c0.304,1.621,1.72,1.463,2.854,1.746c9.434,2.361,19.071,3.977,28.177,7.537
			c3.621,1.416,7.197,2.97,10.699,4.658c1.869,0.9,3.861,1.906,4.271,4.281c-0.506,1.603-1.735,1.894-2.991,1.487
			c-1.496-0.485-2.938-1.207-4.311-1.988c-10.883-6.187-22.583-10.122-34.791-12.643
			C232.465,191.474,230.698,191.402,229.216,191.231z M184.467,202.373c18.151-0.018,32.952-14.6,33.022-32.532
			c0.072-18.4-14.126-32.309-32.549-32.749c-14.952-0.358-32.801,12.139-32.675,31.471
			C152.39,187.562,166.38,202.391,184.467,202.373z M115.657,201.602c11.98-0.211,21.78-3.811,27.849-13.754
			c6.785-11.117,6.902-23.021,0.806-34.405c-5.922-11.06-15.774-16.282-28.366-16.254c-30.924,0.068-38.243,30.022-29.272,47.353
			C92.847,196.469,103.504,201.077,115.657,201.602z M195.176,112.071c5.128,2.931,9.147,6.62,14.648,9.248
			c1.097-9.17,3.373-17.452,3.209-27.121C207.129,100.788,200.118,104.844,195.176,112.071z M90.88,92.971
			c1.409,9.452,2.647,17.757,3.937,26.413c5.587-2.693,10.406-5.75,15.175-10.023C103.375,104.456,98.643,97.987,90.88,92.971z
			 M142.759,212.082c5.52,4.33,13.632,4.054,16.801-0.318C154.921,207.928,147.754,207.951,142.759,212.082z"/>
		<path fill="#090909" d="M153.249,56.546c-2.753,5.659-2.535,11.268,0.247,16.854c1.943,3.902,2.877,7.986,1.812,12.316
			c-0.725,2.948-2.054,5.491-5.127,6.745c-0.537-1.041,0.008-1.591,0.323-2.166c2.496-4.571,2.322-9.152,0.075-13.741
			c-1.732-3.54-2.961-7.194-2.721-11.214c0.228-3.82,1.145-7.333,4.295-9.879C152.519,55.822,152.884,56.184,153.249,56.546z"/>
		<path fill="#090909" d="M132.956,44.676c5.52,4.925,5.875,10.873,3.437,17.373c-0.124,0.331-0.212,0.686-0.397,0.981
			c-3.155,5.043-5.389,10.322-3.503,17.574c-4.473-3.764-4.179-7.553-3.46-11.279c0.359-1.863,1.209-3.719,2.203-5.356
			c3.597-5.921,3.845-11.941,0.964-18.166c0.274-0.13,0.517-0.303,0.73-0.519C133.065,45.086,133.073,44.884,132.956,44.676z"/>
		<path fill="#080808" d="M168.131,76.434c-3.581-3.673-3.079-7.934-1.64-12.245c0.554-1.658,1.418-3.228,2.268-4.768
			c2.725-4.936,3.335-9.958,0.886-15.194c-0.367-0.785-0.5-1.679-0.741-2.523c0.215-0.02,0.332-0.137,0.351-0.352
			c5.087,4.084,6.727,9.267,4.657,15.437c-0.724,2.158-1.774,4.235-2.898,6.224c-2.259,3.996-3.259,8.143-2.094,12.677
			C168.657,75.937,168.394,76.186,168.131,76.434z"/>
		<path fill="#3E3E3E" d="M222.326,222.378c-0.851,0.823-2.004,1.388-2.326,2.73c1.807,1.242,4.1-0.886,5.98,1.016
			c0.631,1.555-0.404,2.686-1.506,3.795l-0.255-0.333c-0.058-0.291-0.232-0.465-0.521-0.524l-0.351-0.24
			c-0.37-1.4-1.485-1.139-2.495-1.125c-1.226,0.018-2.451,0.023-3.338-1.701c-0.026-2.188,1.459-3.648,3.578-4.69
			C221.503,221.664,221.914,222.021,222.326,222.378z"/>
		<path fill="#3D3D3D" d="M230.004,223.598c0.719-2.096,1.792-3.696,4.263-3.297c1.124,1.108,1.221,2.213,0.692,3.425
			c-1.228,0.762-1.056-1.065-1.599-1.018c-1.614,0.024-1.574,1.498-2.433,2.003C230.619,224.34,230.311,223.969,230.004,223.598z"/>
		<path fill="#252525" d="M230.004,223.598c0.308,0.371,0.616,0.742,0.923,1.113c0.145,1.83-0.622,3.816,0.923,5.407
			c-0.349,0.304-0.699,0.608-1.048,0.911C228.17,228.807,229.111,226.2,230.004,223.598z"/>
		<path fill="#444444" d="M230.802,231.03c0.349-0.304,0.699-0.608,1.048-0.911c2.395,0.2,2.785-2.336,4.388-3.216
			c0.252,0.277,0.504,0.554,0.756,0.832C234.727,232.018,234.267,232.262,230.802,231.03z"/>
		<path fill="#484848" d="M222.326,222.378c-0.411-0.357-0.823-0.714-1.234-1.072c1.305-1.355,2.844-1.585,4.981-1.079
			C225.277,222.238,223.404,221.654,222.326,222.378z"/>
		<path fill="#4D4D4D" d="M224.474,229.919c-0.536,1.136-1.144,2.179-2.977,2.037c-0.385-1.629,0.778-2.36,1.85-3.135l0.351,0.24
			c0,0.354,0.173,0.529,0.521,0.524L224.474,229.919z"/>
		<path fill="#707070" d="M153.249,56.546c-0.365-0.362-0.73-0.724-1.095-1.086c0.417-0.534,0.969-1.147,1.583-0.543
			C154.336,55.507,153.754,56.096,153.249,56.546z"/>
		<path fill="#202020" d="M226.865,230.814c0.242,0.129,0.65,0.225,0.683,0.396c0.043,0.216-0.2,0.684-0.353,0.699
			c-0.271,0.027-0.567-0.207-0.853-0.332C226.516,231.323,226.69,231.069,226.865,230.814z"/>
		<path fill="#878787" d="M131.856,44.791c-0.395-0.108-0.629-0.486-0.37-0.673c0.67-0.483,1.172-0.145,1.469,0.558
			c0.117,0.208,0.109,0.41-0.026,0.607C132.572,45.119,132.214,44.955,131.856,44.791z"/>
		<path fill="#303030" d="M168.904,41.704c-0.201-0.206-0.6-0.563-0.575-0.596c0.464-0.608,0.739-0.316,0.926,0.244
			C169.236,41.566,169.119,41.684,168.904,41.704z"/>
		<path d="M131.856,44.791c0.358,0.164,0.716,0.328,1.073,0.493c-0.213,0.216-0.457,0.389-0.73,0.519
			C132.085,45.465,131.971,45.128,131.856,44.791z"/>
		<path d="M168.131,76.434c0.263-0.248,0.526-0.496,0.789-0.744C168.958,76.256,169.051,76.881,168.131,76.434z"/>
		<path fill="#2D2D2D" d="M236.995,227.734c-0.252-0.277-0.504-0.554-0.756-0.832C237.006,226.711,237.134,227.101,236.995,227.734z
			"/>
		<path fill="#202020" d="M224.219,229.586c-0.348,0.005-0.522-0.169-0.521-0.524C223.987,229.121,224.161,229.295,224.219,229.586z
			"/>
		<path fill="#010101" d="M185.455,180.083c-5.967-0.033-9.779-3.727-9.742-9.44c0.04-6.131,4.483-10.407,10.857-10.448
			c5.42-0.035,8.993,3.45,9.075,8.803C195.72,173.834,192.157,180.528,185.455,180.083z"/>
		<path fill="#010101" d="M116.8,179.919c-6.439-0.04-10.533-3.984-10.424-10.042c0.105-5.821,4.381-9.525,11.035-9.559
			c6.05-0.031,9.897,3.927,9.772,10.056C127.065,176.218,122.997,179.958,116.8,179.919z"/>
	</g>
</g>
</svg>
